<?xml version="1.0" standalone="no"?>
<!DOCTYPE svg PUBLIC "-//W3C//DTD SVG 1.1//EN" "http://www.w3.org/Graphics/SVG/1.1/DTD/svg11.dtd" >
<svg xmlns="http://www.w3.org/2000/svg">
<metadata>Generated by IcoMoon</metadata>
<defs>
<font id="darkoob" horiz-adv-x="1024">
<font-face units-per-em="1024" ascent="960" descent="-64" />
<missing-glyph horiz-adv-x="1024" />
<glyph unicode="&#x20;" horiz-adv-x="512" d="" />
<glyph unicode="&#xe900;" glyph-name="user" horiz-adv-x="1230" d="M568.471 957.365c-77.804-5.898-158.118-28.11-228.016-63.122-25.851-12.925-39.906-21.082-66.886-39.027-118.839-79.059-206.808-197.898-247.718-334.808-24.596-81.945-31.624-168.282-20.706-254.996 11.671-92.235 45.176-182.463 96.878-260.392 10.165-15.435 36.267-50.447 36.894-49.694 0.251 0.251 1.631 6.024 3.012 12.8 5.396 26.227 15.937 51.075 32.125 75.043 43.043 63.624 117.961 114.196 217.224 146.698l19.2 6.275 5.898-5.271c47.435-41.663 105.537-68.141 165.271-75.42 14.557-1.757 51.953-1.757 66.51 0 24.471 3.012 52.204 9.914 73.412 18.447 28.11 11.294 60.235 30.243 82.824 49.192 12.173 10.165 9.161 10.039 34.259 1.129 118.337-42.165 201.788-113.82 227.765-195.514 4.518-14.431 6.275-22.337 8.157-38.776l1.506-12.549 10.165 12.173c14.933 17.82 29.49 37.396 42.541 57.349 90.102 137.412 121.224 302.306 87.843 464.314-32.125 155.106-126.996 295.153-260.392 384.251-88.973 59.357-190.494 94.118-298.039 102.024-20.455 1.506-68.894 1.38-89.725-0.125zM630.588 731.608c72.91-6.024 136.282-45.176 179.827-111.059 23.843-36.141 39.027-78.055 44.8-124.737 2.635-20.706 2.008-64.251-1.129-82.949-7.404-43.169-22.337-82.447-44.298-115.451-56.345-84.957-150.086-126.118-241.192-105.914-101.773 22.714-179.702 115.451-194.133 231.404-2.384 19.075-2.259 54.839 0.251 74.29 8.533 67.263 36.769 124.737 83.451 169.914 42.667 41.161 92.863 62.494 154.227 65.506 1.757 0.125 9.914-0.376 18.196-1.004z" />
<glyph unicode="&#xe901;" glyph-name="social" d="M782.131 332.186c-68.301 0-128-35.738-162.304-89.19l-206.541 118.067c13.312 26.214 21.504 55.501 21.504 86.938 0 19.456-3.789 37.786-9.114 55.501l215.040 122.88c35.226-38.195 85.299-62.566 141.414-62.566 106.598 0 193.024 86.426 193.024 193.024 0 106.496-86.426 192.922-193.024 192.922s-192.922-86.426-192.922-193.024c0-19.456 3.789-37.786 9.114-55.501l-215.040-122.88c-35.226 38.298-85.299 62.566-141.414 62.566-106.598 0-193.024-86.426-193.024-193.024s86.426-193.024 193.024-193.024c44.032 0 84.070 15.258 116.531 40.141l232.96-134.963c-0.717-6.963-2.048-13.722-2.048-20.89 0-106.598 86.426-193.024 193.024-193.024s193.024 86.426 193.024 193.024c-0.205 106.598-86.63 193.024-193.229 193.024z" />
<glyph unicode="&#xe902;" glyph-name="scissor" d="M429.056 673.792c0 104.342-84.586 188.928-188.928 188.928s-188.928-84.586-188.928-188.928c0-104.342 84.586-188.928 188.928-188.928v0c49.149 0.128 93.841 19.106 127.25 50.082l-0.121-0.111 93.542-86.374 0.614-0.461-0.205-0.154-94.003-86.682c-33.264 30.875-77.944 49.856-127.055 49.971h-0.023c-104.342 0-188.928-84.586-188.928-188.928s84.586-188.928 188.928-188.928c104.342 0 188.928 84.586 188.928 188.928v0c0 15.206-2.253 29.798-5.683 43.93l145.613 101.939 211.302-156.928c113.254-79.309 192.512 33.946 192.512 33.946l-549.427 384.768c3.379 14.131 5.683 28.723 5.683 43.93zM240.128 581.632c-50.899 0-92.16 41.261-92.16 92.16s41.261 92.16 92.16 92.16v0c50.899 0 92.16-41.261 92.16-92.16s-41.261-92.16-92.16-92.16v0zM240.128 130.048c-50.899 0-92.16 41.261-92.16 92.16s41.261 92.16 92.16 92.16v0c50.899 0 92.16-41.261 92.16-92.16s-41.261-92.16-92.16-92.16v0zM972.8 650.854s-79.258 113.254-192.512 33.946l-164.096-114.432 120.525-84.378 236.083 164.864z" />
<glyph unicode="&#xe903;" glyph-name="telegram" horiz-adv-x="992" d="M496 944c-274 0-496-222-496-496s222-496 496-496 496 222 496 496-222 496-496 496zM739.6 604.2l-81.4-383.6c-6-27.2-22.2-33.8-44.8-21l-124 91.4-59.8-57.6c-6.6-6.6-12.2-12.2-25-12.2l8.8 126.2 229.8 207.6c10 8.8-2.2 13.8-15.4 5l-284-178.8-122.4 38.2c-26.6 8.4-27.2 26.6 5.6 39.4l478.2 184.4c22.2 8 41.6-5.4 34.4-39z" />
<glyph unicode="&#xe904;" glyph-name="whatsapp" d="M757.707 371.596c-1.995 0.958-76.647 37.718-89.913 42.493-5.416 1.945-11.217 3.843-17.388 3.843-10.080 0-18.548-5.024-25.145-14.891-7.457-11.084-30.032-37.472-37.007-45.355-0.911-1.041-2.154-2.284-2.899-2.284-0.668 0-12.222 4.758-15.719 6.277-80.081 34.786-140.866 118.438-149.201 132.545-1.19 2.028-1.24 2.949-1.25 2.949 0.293 1.074 2.986 3.774 4.375 5.167 4.066 4.023 8.471 9.326 12.734 14.456 2.018 2.43 4.039 4.864 6.024 7.158 6.184 7.195 8.937 12.78 12.128 19.25l1.672 3.361c7.793 15.483 1.137 28.549-1.014 32.768-1.765 3.531-33.287 79.606-36.638 87.599-8.059 19.286-18.708 28.266-33.506 28.266-1.373 0 0 0-5.758-0.243-7.012-0.296-45.196-5.323-62.078-15.965-17.903-11.287-48.191-47.267-48.191-110.542 0-56.948 36.139-110.718 51.655-131.168 0.386-0.515 1.094-1.563 2.121-3.065 59.422-86.781 133.499-151.093 208.593-181.092 72.295-28.878 106.529-32.216 125.992-32.216 0.003 0 0.003 0 0.003 0 8.179 0 14.725 0.642 20.5 1.21l3.664 0.349c24.975 2.214 79.859 30.654 92.343 65.346 9.834 27.326 12.428 57.181 5.885 68.016-4.482 7.367-12.205 11.074-21.983 15.769zM521.090 960c-277.331 0-502.957-223.93-502.957-499.177 0-89.025 23.825-176.168 68.957-252.436l-86.385-254.82c-1.609-4.751-0.412-10.004 3.102-13.581 2.537-2.59 5.978-3.986 9.492-3.986 1.346 0 2.703 0.203 4.026 0.625l265.708 84.433c72.711-38.849 154.89-59.355 238.060-59.355 277.305-0.003 502.907 223.904 502.907 499.12 0 275.247-225.602 499.177-502.91 499.177zM521.090 65.682c-78.26 0-154.059 22.598-219.216 65.353-2.191 1.44-4.734 2.178-7.294 2.178-1.353 0-2.71-0.206-4.030-0.625l-133.103-42.31 42.968 126.767c1.39 4.103 0.695 8.628-1.865 12.125-49.617 67.797-75.846 147.898-75.846 231.653 0 217.909 178.715 395.194 398.383 395.194 219.641 0 398.336-177.285 398.336-395.194 0.003-217.883-178.688-395.141-398.333-395.141z" />
<glyph unicode="&#xe905;" glyph-name="dress" d="M756.79-19.785c64.195 17.561 59.635 7.146 77.864 31.235 0 0-171.542 471.493-174.148 484.042-2.149 10.344-15.491 51.613-24.476 66.275-45.234-20.649-86.748-27.929-122.408-27.929-62.517 0-107.154 21.827-123.349 31.14-8.813-10.262-24.429-58.209-26.783-69.486-2.602-12.549-174.139-484.042-174.139-484.042 18.203-24.089 13.663-13.674 77.857-31.235 64.195-17.572 5.425-7.154 30.785-19.517 25.375-12.349 52.698-3.235 52.698-3.235 52.043 1.94 22.773-1.951 34.476-8.46 11.716-6.506 44.241-3.909 44.241-3.909-1.294 6.515 7.809 7.811 7.809 7.811 57.251 0.64 35.779-8.46 39.684-11.066 3.905-2.589 35.101-5.843 35.101-5.843s31.185 3.254 35.105 5.843c3.894 2.606-17.57 11.72 39.677 11.066 0 0 9.112-1.297 7.809-7.811 0 0 32.523-2.597 44.252 3.909 11.718 6.506-17.572 10.4 34.472 8.46 0 0 27.306-9.114 52.707 3.235 25.357 12.362-33.393 1.962 30.77 19.517zM317.072 843.749c-9.106-39.042-49.868-117.982-49.868-117.982 13.019-13.015 99.442-39.888 99.749-36.438 0.857 9.536 6.935 35.577 6.935 35.577 12.489-51.352 17.188-121.424 18.573-147.477 14.854-9.304 110.606-63.385 238.803-4.82 1.001 20.809 5.462 97.299 18.832 152.297 0 0 6.076-26.021 6.939-35.577 0.312-3.448 86.746 23.423 99.754 36.438 0 0-40.782 78.941-49.894 117.982-8.587 36.851-14.794 44.348-44.646 53.825 7.76-11.987 13.445-27.739 14.206-49.194 0.422-11.972 0.2-18.056-3.633-22.051-1.919-1.979-4.48-3.075-7.232-3.075-4.282 0-7.467 2.369-11.86 5.653-6.506 4.88-16.346 12.22-32.191 14.025-5.137 0.594-9.58 1.118-13.379 1.579 9.002-32.18 17.634-57.912 20.921-62.062 2.083-2.61 2.744-5.955 1.831-9.209-1.165-4.098-3.53-12.388-62.502-34.28 7.872-17.15 12.739-30.182 13.964-33.526 0.034-0.125 0.086-0.224 0.112-0.342v0c1.51-4.389-0.801-9.179-5.195-10.715-0.924-0.319-1.865-0.478-2.806-0.478-3.47 0-6.724 2.162-7.956 5.612v0c0 0.034 0 0.065-0.037 0.099-0.594 1.611-6.215 15.778-19.521 17.115-13.585 1.355-126.843 36.737-134.635 55.235-1.527 3.599-0.997 7.521 1.372 10.499 3.293 4.157 11.918 29.889 20.908 62.067-3.788-0.465-8.229-1.001-13.355-1.579-15.86-1.822-25.7-9.162-32.223-14.007-4.398-3.289-7.579-5.649-11.854-5.649-2.757 0-5.32 1.101-7.236 3.073-3.851 3.995-4.075 10.064-3.635 22.051 0.997 27.713 10.193 45.832 21.474 58.7-6.715-2.931-13.663-5.671-20.83-7.833-34.7-10.424-40.771-16.499-49.886-55.532zM544.127 702.35c6.472 0 11.712-5.244 11.712-11.712 0-6.483-5.24-11.716-11.712-11.716-6.465 0-11.72 5.236-11.72 11.716 0.017 6.467 5.255 11.712 11.72 11.712zM544.127 629.497c6.472 0 11.712-5.244 11.712-11.716s-5.24-11.716-11.712-11.716c-6.465 0-11.72 5.244-11.72 11.716s5.255 11.716 11.72 11.716zM471.267 702.35c6.483 0 11.716-5.244 11.716-11.712 0-6.483-5.236-11.716-11.716-11.716-6.467 0-11.712 5.236-11.712 11.716 0 6.467 5.244 11.712 11.712 11.712zM471.267 629.497c6.483 0 11.716-5.244 11.716-11.716s-5.236-11.716-11.716-11.716c-6.467 0-11.712 5.244-11.712 11.716s5.244 11.716 11.712 11.716zM622.493 777.186c-7.361 9.196-24.009 70.483-25.857 77.425-3.452 0.579-2.548 0.676-1.449 0.676 0.603 0 1.286-0.030 1.286-0.030s0.052-0.215 0.164-0.648c3.332-0.534 10.704-1.518 25.857-3.259 26.421-3.019 38.434-19.609 43.112-19.609 2.356 0 2.856 4.17 2.425 16.364-0.861 24.296-8.46 40.698-19.168 53.058-5.335 6.166-11.41 11.41-17.916 15.993-19.534 13.747-34.474 42.845-34.474 42.845s-4.557-87.174-50.741-128.815c-6.655-5.985-12.86-13.118-18.823-20.589 1.604-2.136 3.159-4.35 4.704-6.53 13.473-19.023 24.72-39.735 33.177-57.404 32.081 11.955 61.761 25.415 57.703 30.524zM556.78 743.711c-7.958 16.476-18.358 35.654-30.632 53.338-1.538 2.21-3.078 4.415-4.678 6.577-0.868 1.165-1.76 2.296-2.647 3.452-0.872 1.148-1.792 2.279-2.679 3.409-6.028 7.559-12.386 14.628-19.077 20.68-3.327 2.989-6.392 6.291-9.295 9.726-20.796 24.459-31.265 58.309-36.451 83.735-4.176 20.389-5.009 35.372-5.009 35.372s-11.104-21.545-26.656-36.322c-2.511-2.378-5.111-4.617-7.82-6.519-19.523-13.749-35.788-32.62-37.091-69.051-0.437-12.177 0.065-16.364 2.434-16.364 4.682 0 16.689 16.59 43.11 19.609 15.151 1.74 22.523 2.724 25.857 3.259 0.116 0.433 0.164 0.648 0.164 0.648s0.676 0.030 1.29 0.030c1.096 0 1.999-0.099-1.454-0.676-1.861-6.926-18.5-68.213-25.857-77.425-5.236-6.564 45.199-26.854 84.844-40.108 1.251-0.418 2.498-0.851 3.719-1.251 17.813-5.847 32.953-10.096 38.943-10.702 18.427-1.839 25.823-20.473 26.615-22.568-0.665 1.755-5.645 15.263-14.068 33.472-0.56 1.247-1.191 2.556-1.794 3.859-0.594 1.273-1.139 2.494-1.768 3.818z" />
<glyph unicode="&#xe906;" glyph-name="yarn" d="M374.573 698.057c35.602-19.678 78.984-36.37 129.024-48.316 128.854 0.426 220.126 116.156 292.437 229.394l8.226 14.864c-44.954 27.768-95.232 47.702-148.89 57.992l-11.076-22.186c-65.894-103.236-148.804-208.366-269.721-231.748zM694.617 401.965c-201.574 0-381.303 55.654-480.033 130.1-43.11 32.512-66.286 66.594-67.158 98.696l-1.826 8.908c-11.384-39.202-17.596-80.572-17.596-123.41 0-3.822 0.188-7.594 0.29-11.4l37.99-56.662c97.212-145.118 323.737-202.514 734.481-186.402h34.168c38.724 55.126 65.298 119.364 75.656 188.86l-26.18-8.756c-97.348-27.85-195.942-39.934-289.791-39.934zM995.614 647.615l-29.866-11.52c-100.13-28.228-195.208-40.278-281.513-40.278-162.338 0-293.717 42.598-369.901 100.3-45.108 34.168-69.956 73.608-69.956 111.052l-0.614 7.662c-30.994-34.014-56.662-72.892-75.964-115.252l13.738-66.952c0-21.214 19.030-47.24 53.606-73.318 196.488-148.138 550.501-138.786 739.157-84.822l40.174 13.432c0.598 9.386 0.99 18.824 0.99 28.348 0 45.706-6.964 89.824-19.85 131.348zM774.316 225.041c-344.165 0-542.787 64.444-636.381 204.152l-1.774 2.646c12.526-64.786 39.27-124.536 76.732-176.008-2.372-44.954-39.356-80.896-84.89-80.896-65.86 0-119.466-53.59-119.466-119.466 0-65.878 53.606-119.466 119.466-119.466s119.466 53.59 119.466 119.466c0 9.42-7.628 17.066-17.066 17.066s-17.066-7.646-17.066-17.066c0-47.052-38.28-85.334-85.334-85.334-47.052 0-85.334 38.28-85.334 85.334 0 47.052 38.28 85.334 85.334 85.334 52.258 0 96.682 33.792 112.862 80.622 81.288-91.17 199.372-148.89 330.871-148.89 134.554 0 255.214 60.28 336.657 155.154h-6.964c-44.392-1.762-86.768-2.648-127.114-2.648zM329.787 727.5c102.69 2.39 188.416 68.454 285.269 219.922l4.932 9.898c-15.856 1.724-31.95 2.68-48.248 2.68-113.784 0-217.668-43.076-296.277-113.732l2.986-37.752c0.052-26.454 18.33-54.63 51.338-81.016zM596.871 634.213c103.902-10.786 226.168-2.918 358.109 34.236l29.166 11.246c-31.232 78.524-84.19 146.074-151.5 195.174l-7.304-13.176c-59.886-93.848-132.164-188.516-228.472-227.48z" />
<glyph unicode="&#xe907;" glyph-name="filter" d="M597.333 448v-336.213c1.707-12.8-2.56-26.453-12.373-35.413-7.693-7.709-18.33-12.478-30.080-12.478s-22.387 4.769-30.079 12.477l-85.761 85.761c-7.839 7.668-12.7 18.354-12.7 30.175 0 1.847 0.119 3.666 0.349 5.45l-0.022-0.211v250.453h-1.28l-245.76 314.88c-5.616 7.156-9.007 16.292-9.007 26.22 0 13.553 6.319 25.63 16.172 33.446l0.088 0.068c8.107 5.973 17.067 9.387 26.453 9.387h597.333c9.387 0 18.347-3.413 26.453-9.387 9.941-7.883 16.26-19.96 16.26-33.514 0-9.928-3.391-19.063-9.077-26.312l0.070 0.093-245.76-314.88h-1.28z" />
<glyph unicode="&#xe908;" glyph-name="chevron-left" d="M657.493 252.587l-195.413 195.413 195.413 195.84-60.16 60.16-256-256 256-256 60.16 60.587z" />
<glyph unicode="&#xe909;" glyph-name="home" d="M426.667 106.667v256h170.667v-256h213.333v341.333h128l-426.667 384-426.667-384h128v-341.333h213.333z" />
<glyph unicode="&#xe90a;" glyph-name="download" d="M624 253.7h-74.1v242.3c0 4.4-3.6 8-8 8h-60c-4.4 0-8-3.6-8-8v-242.3h-73.9c-6.7 0-10.4-7.7-6.3-12.9l112-141.7c1.478-1.876 3.75-3.069 6.3-3.069s4.822 1.193 6.287 3.052l0.013 0.017 112 141.7c4.1 5.2 0.4 12.9-6.3 12.9zM811.4 593.3c-45.8 120.8-162.5 206.7-299.2 206.7s-253.4-85.8-299.2-206.6c-85.7-22.5-149-100.6-149-193.4 0-110.5 89.5-200 199.9-200h40.1c4.4 0 8 3.6 8 8v60c0 4.4-3.6 8-8 8h-40.1c-33.7 0-65.4 13.4-89 37.7-23.5 24.2-36 56.8-34.9 90.6 0.9 26.4 9.9 51.2 26.2 72.1 16.7 21.3 40.1 36.8 66.1 43.7l37.9 9.9 13.9 36.6c8.6 22.8 20.6 44.1 35.7 63.4 15.032 19.174 32.299 35.646 51.641 49.388l0.759 0.512c41.1 28.9 89.5 44.2 140 44.2s98.9-15.3 140-44.2c19.9-14 37.5-30.8 52.4-49.9 15.1-19.3 27.1-40.7 35.7-63.4l13.8-36.5 37.8-10c54.2-14.6 92.1-63.9 92.1-120.1 0-33.1-12.9-64.3-36.3-87.7-22.296-22.423-53.166-36.3-87.277-36.3-0.114 0-0.227 0-0.341 0h-40.082c-4.4 0-8-3.6-8-8v-60c0-4.4 3.6-8 8-8h40.1c110.4 0 199.9 89.5 199.9 200 0 92.7-63.1 170.7-148.6 193.3z" />
<glyph unicode="&#xe90b;" glyph-name="audio" d="M357.888 802.304l564.224 102.4c28.16 4.096 50.688-23.040 50.688-51.2v-635.904c0-99.328-80.384-179.2-179.2-179.2s-179.2 79.872-179.2 179.2c0 98.816 80.384 179.2 179.2 179.2 27.648 0 53.248-7.168 76.8-17.92v321.024l-460.8-102.4v-456.704c-12.288-87.040-89.088-153.6-179.2-153.6-98.816 0-179.2 79.872-179.2 179.2 0 98.816 80.384 179.2 179.2 179.2 27.648 0 53.248-7.168 76.8-17.92v423.424c0 28.16 22.528 46.592 50.688 51.2z" />
<glyph unicode="&#xe90c;" glyph-name="tag" d="M26.199 584.071v296.821c2.266 45.351 38.81 78.562 79.108 79.108h296.82c47.734-2.966 104.726-21.681 135.335-56.226l439.346-489.036c27.598-34.937 28.378-83.284 0-112.451l-343.893-343.893c-33.719-30.505-84.028-29.207-112.451 0l-438.040 490.342c-31.933 37.711-55.785 88.131-56.225 135.334zM154.995 755.364c1.871-44.126 36.68-75.971 75.84-76.494 44.253 1.976 75.971 37.249 76.494 76.494-1.948 44.273-37.401 75.326-76.494 75.84-44.147-1.844-75.329-36.832-75.84-75.84z" />
<glyph unicode="&#xe90d;" glyph-name="shopping-cart" d="M977.008 928h-45.008v-14.336c-62.656-14.016-71.664-72.176-75.2-94.4-1.68-10.512-5.088-31.072-9.312-56.256h-783.68c-31.008 0-34.48-28.976-30.432-45.008l91.936-405.872c4.032-16.032 21.008-29.12 37.648-29.12h687.104c16.544 0 30.032-13.456 30.032-30s-13.488-30-30.032-30h-749.984c-16.569 0-30-13.431-30-30s13.431-30 30-30h38.88c-37.212-20.838-61.952-60.014-61.952-104.969 0-0.014 0-0.027 0-0.041v0.002h30c0-49.68 40.32-90 90-90s90 40.32 90 90h30c0 0.006 0 0.013 0 0.021 0 44.964-24.747 84.148-61.363 104.676l-0.605 0.311h423.904c-37.221-20.839-61.968-60.023-61.968-104.987 0-0.007 0-0.014 0-0.022v0.001h30c0.953-48.988 40.889-88.335 90.016-88.335s89.063 39.347 90.015 88.246l0.001 0.089h30c0 0.003 0 0.007 0 0.010 0 44.963-24.739 84.148-61.348 104.686l-0.604 0.312h55.040c49.695 0.027 89.973 40.305 90 89.997v0.003c-0.009 49.708-40.307 90-90.016 90-0.006 0-0.011 0-0.017 0h-11.151l38.368 238.56c10.688 63.008 33.728 199.12 39.136 232.976 2.72 17.104 5.36 29.12 15.584 35.856v-12.384h45.008c8.263 0.027 14.956 6.714 14.992 14.973v60.003c-0.018 8.276-6.718 14.981-14.989 15.008h-0.003zM197.008 12.992c-24.846 0.027-44.981 20.162-45.008 45.005v0.003h90c-0.027-24.841-20.153-44.972-44.989-45.008h-0.003zM737.008 12.992c-24.853 0.018-44.997 20.156-45.024 45.005v0.003h90.032c-0.045-24.839-20.169-44.963-45.004-45.008h-0.004zM700.096 688.096c1.115 8.344 8.105 14.738 16.622 14.912h95.010c8.256 0 14-6.656 12.704-14.832l-9.408-60.336c-1.248-8.16-9.072-14.832-17.344-14.832h-90.608c-0.104-0.003-0.227-0.005-0.35-0.005-7.299 0-13.216 5.917-13.216 13.216 0 0.6 0.040 1.19 0.117 1.768l-0.007-0.068 6.48 60.176zM683.952 538.096c1.134 8.335 8.113 14.717 16.62 14.912h87.748c8.272 0 14-6.656 12.752-14.832l-7.088-45.344c-1.264-8.16-9.072-14.832-17.344-14.832h-84.112c-0.093-0.002-0.203-0.004-0.313-0.004-7.317 0-13.248 5.931-13.248 13.248 0 0.588 0.038 1.167 0.113 1.735l-0.007-0.067 4.88 45.184zM109.856 627.568l-15.2 60.88c-1.984 8.032 3.168 14.56 11.44 14.56h112.944c8.288 0 15.76-6.704 16.64-14.912l6.464-60.192c0.067-0.501 0.105-1.080 0.105-1.667 0-7.317-5.931-13.248-13.248-13.248-0.105 0-0.209 0.001-0.313 0.004h-100.161c-8.256 0-16.672 6.576-18.672 14.576zM162.192 478c-8.256 0-16.672 6.56-18.656 14.56l-11.456 45.872c-2 8.032 3.12 14.56 11.392 14.56h91.664c8.272 0 15.76-6.704 16.64-14.912l4.864-45.184c0.068-0.506 0.108-1.090 0.108-1.684 0-7.308-5.924-13.232-13.232-13.232-0.111 0-0.222 0.001-0.332 0.004h-80.992zM257.696 342.992h-61.84c-8.304 0-16.672 6.56-18.672 14.56l-11.456 45.872c-1.984 8.032 3.136 14.56 11.424 14.56h72.48c8.272 0 15.76-6.704 16.672-14.912l4.832-45.184c0.069-0.506 0.108-1.090 0.108-1.684 0-7.299-5.917-13.216-13.216-13.216-0.117 0-0.233 0.002-0.349 0.005h0.017zM441.568 358c-0.036-8.285-6.752-14.99-15.038-15.008h-78.258c-8.529 0.182-15.51 6.573-16.614 14.824l-0.010 0.088-4.864 45.184c-0.071 0.515-0.112 1.111-0.112 1.716 0 7.29 5.91 13.2 13.2 13.2 0.118 0 0.236-0.002 0.353-0.005h86.303c0 0 0 0 0 0 8.295 0 15.022-6.715 15.040-15.006v-44.994zM441.568 492.992c-0.036-8.285-6.752-14.99-15.038-15.008h-92.77c-8.256 0-15.712 6.704-16.64 14.912l-4.832 45.184c-0.070 0.511-0.11 1.101-0.11 1.7 0 7.299 5.917 13.216 13.216 13.216 0.112 0 0.223-0.001 0.334-0.004h100.8c0 0 0 0 0 0 8.295 0 15.022-6.715 15.040-15.006v-44.994zM441.568 628c-0.036-8.285-6.752-14.99-15.038-15.008h-107.234c-8.535 0.174-15.525 6.568-16.63 14.824l-0.010 0.088-6.464 60.192c-0.068 0.506-0.108 1.090-0.108 1.684 0 7.308 5.924 13.232 13.232 13.232 0.111 0 0.222-0.001 0.332-0.004h116.896c0 0 0 0 0 0 8.295 0 15.022-6.715 15.040-15.006v-60.002zM604.112 357.904c-1.121-8.341-8.107-14.731-16.622-14.912h-70.738c-8.285 0.018-14.997 6.725-15.024 15.005v45.011c0.018 8.287 6.736 14.999 15.023 15.008h78.785c8.256 0 14.336-6.704 13.44-14.912l-4.864-45.2zM618.608 492.912c-1.121-8.341-8.107-14.731-16.622-14.912h-85.234c-8.285 0.018-14.997 6.725-15.024 15.005v45.011c0.018 8.287 6.736 14.999 15.023 15.008h93.281c8.272 0 14.336-6.704 13.424-14.912l-4.848-45.2zM633.104 627.904c-1.121-8.341-8.107-14.731-16.622-14.912h-99.73c-8.285 0.018-14.997 6.725-15.024 15.005v60.003c0.018 8.287 6.736 14.999 15.023 15.008h109.393c8.272 0 14.336-6.704 13.456-14.912l-6.496-60.192zM748.816 342.992v0.112l-0.128-0.112h-70.656c-0.464 0-0.864 0.224-1.328 0.288-0.080 0.544-0.080 1.088-0.176 1.664l-0.704-1.472c0.151-0.043 0.351-0.088 0.554-0.123l0.038-0.005c-7.376 0.848-12.656 6.944-11.808 14.56l4.832 45.184c1.134 8.335 8.113 14.717 16.62 14.912h81.236c8.272 0 13.968-6.656 12.72-14.832l-7.088-45.344c-1.232-8.16-9.040-14.832-17.312-14.832h-6.8z" />
<glyph unicode="&#xe90e;" glyph-name="minus-circle" d="M512 944c-274 0-496-222-496-496s222-496 496-496 496 222 496 496-222 496-496 496zM248 368c-13.2 0-24 10.8-24 24v112c0 13.2 10.8 24 24 24h528c13.2 0 24-10.8 24-24v-112c0-13.2-10.8-24-24-24h-528z" />
<glyph unicode="&#xe90f;" glyph-name="shipping" horiz-adv-x="1280" d="M1248 256h-32v216.2c0 25.4-10.2 49.8-28.2 67.8l-199.8 199.8c-18 18-42.4 28.2-67.8 28.2h-88.2v96c0 53-43 96-96 96h-512c-53 0-96-43-96-96v-96h-112c-8.8 0-16-7.2-16-16v-32c0-8.8 7.2-16 16-16h544c8.8 0 16-7.2 16-16v-32c0-8.8-7.2-16-16-16h-480c-8.8 0-16-7.2-16-16v-32c0-8.8 7.2-16 16-16h416c8.8 0 16-7.2 16-16v-32c0-8.8-7.2-16-16-16h-480c-8.8 0-16-7.2-16-16v-32c0-8.8 7.2-16 16-16h416c8.8 0 16-7.2 16-16v-32c0-8.8-7.2-16-16-16h-304v-256c0-106 86-192 192-192s192 86 192 192h256c0-106 86-192 192-192s192 86 192 192h96c17.6 0 32 14.4 32 32v64c0 17.6-14.4 32-32 32zM320 32c-53 0-96 43-96 96s43 96 96 96 96-43 96-96-43-96-96-96zM960 32c-53 0-96 43-96 96s43 96 96 96 96-43 96-96-43-96-96-96zM1120 448h-288v224h88.2l199.8-199.8v-24.2z" />
<glyph unicode="&#xe910;" glyph-name="percent" d="M789.333 810.667l-640-640 85.333-85.333 640 640zM298.667 789.333c-70.692 0-128-57.308-128-128v0c0-70.692 57.308-128 128-128v0c70.692 0 128 57.308 128 128v0c0 70.692-57.308 128-128 128v0zM725.333 362.667c-70.692 0-128-57.308-128-128v0c0-70.692 57.308-128 128-128v0c70.692 0 128 57.308 128 128v0c0 70.692-57.308 128-128 128v0z" />
<glyph unicode="&#xe911;" glyph-name="play-pause" d="M851.408 787.392c-187.44 187.472-491.376 187.472-678.816 0-187.456-187.44-187.456-491.376 0-678.816 187.44-187.44 491.376-187.44 678.816 0 187.456 187.44 187.456 491.376 0 678.816zM208 192.016v512l304-256-304-256zM664 192.016h-91.2v512h91.2v-512zM816 192.016h-91.2v512h91.2v-512z" />
<glyph unicode="&#xe912;" glyph-name="gift" d="M354.151 206.517l-39.841 64.728-84.167-15.096 110.728 196.39h-215.972v-516.539h368.001v516.539zM959.842 699.024h-244.349c14.242 7.37 27.059 15.025 38.345 23.214 43.472 31.118 66.508 70.531 66.437 109.695 0 32.115-15.203 78.115-37.313 97.305-22.11 19.368-51.412 30.762-82.743 30.762-33.432 0-64.55-11.464-91.181-29.338-40.054-26.81-71.421-84.915-93.852-129.206-1.104-2.207-2.243-4.379-3.311-6.551-8.153 17.090-17.731 51.305-28.59 66.935-18.941 27.059-41.728 51.020-68.466 68.822-26.56 17.873-57.607 29.338-91.039 29.338-33.325-0.071-63.802-14.028-86.624-35.568-22.751-21.362-38.63-69.356-38.773-103.678-0.107-20.009 5.732-40.944 17.766-60.028 15.167-23.855 39.2-44.683 72.347-61.701h-224.945l0.534-205.434h422.368v205.434h51.483v-205.434h422.474l-0.57 205.434zM303.13 763.254c-16.983 10.717-27.379 21.505-33.503 31.153-5.981 9.577-8.046 26.382-8.046 34.678-0.142 13.85 6.729 38.060 19.012 49.418 11.963 11.429 28.163 18.443 42.796 18.443h0.392c18.763-0.107 37.42-6.444 56.112-18.763 27.878-18.407 54.189-68.43 72.454-105.102 9.542-18.621 16.841-38.167 21.718-57.251-84.595 8.759-139.246 27.415-170.934 47.424zM592.269 807.936c15.238 21.825 33.254 57.856 51.839 70.282 18.55 12.319 37.348 18.621 56.076 18.763h0.214c15.63 0 30.655-6.124 40.909-15.203 10.325-9.221 15.737-26.098 15.737-37.954-0.178-14.028-7.441-46.356-40.232-70.317-31.118-22.644-85.093-45.858-168.121-62.129 7.975 32.898 23.285 67.718 43.579 96.557zM794.32 256.968l-84.096 14.277-39.769-65.511-136.968 243.494v-513.228h366.114v516.539h-215.901z" />
<glyph unicode="&#xe913;" glyph-name="window-close" d="M574.293 448l236.373-236.373v-62.293h-62.293l-236.373 236.373-236.373-236.373h-62.293v62.293l236.373 236.373-236.373 236.373v62.293h62.293l236.373-236.373 236.373 236.373h62.293v-62.293l-236.373-236.373z" />
<glyph unicode="&#xe914;" glyph-name="chart-pie" horiz-adv-x="1096" d="M1063.031 383.548h-477.93l318.291-318.291c12.165-12.165 32.186-13.152 44.693-1.37 77.946 73.435 131.562 172.429 147.292 283.709 2.699 19.054-13.112 35.952-32.347 35.952zM1031.148 514.063c-16.596 240.607-208.864 432.874-449.471 449.471-18.369 1.269-33.837-14.22-33.837-32.629v-450.679h450.699c18.409 0 33.877 15.468 32.609 33.837zM451.162 383.548v477.93c0 19.235-16.898 35.046-35.932 32.347-240.022-33.918-423.488-243.608-414.949-494.909 8.782-258.089 230.999-469.733 489.209-466.49 101.512 1.269 195.309 33.978 272.43 88.682 15.912 11.279 16.959 34.703 3.162 48.5l-313.92 313.941z" />
<glyph unicode="&#xe915;" glyph-name="phone" d="M574.925 385.075c-81.050-80.998-174.95-158.515-212.070-121.395-53.094 53.094-85.862 99.379-203.008 5.222-117.094-94.106-27.136-156.877 24.32-208.282 59.392-59.392 280.781-3.174 499.61 215.603 218.778 218.829 274.842 440.218 215.398 499.61-51.456 51.507-113.92 141.414-208.026 24.32-94.157-117.094-47.923-149.862 5.274-203.008 36.966-37.12-40.499-131.021-121.498-212.070z" />
<glyph unicode="&#xe916;" glyph-name="price-tag" d="M992.666 939.264c-4.703 11.488-15.796 19.434-28.745 19.434-17.108 0-30.976-13.868-30.976-30.976 0-3.169 0.476-6.227 1.36-9.106l-0.058 0.219c47.565-136.704-46.848-238.797-118.835-293.478l-29.082 41.677c-9.779 13.978-31.642 25.6-48.64 25.805l-163.226-0.717c-20.928-0.651-40.246-7.013-56.602-17.569l0.436 0.263-480.973-337.254c-13.348-9.479-21.952-24.88-21.952-42.29 0-11.078 3.483-21.343 9.415-29.758l-0.109 0.163 218.573-312.73c16.384-23.296 42.547-20.48 65.894-4.198l480.973 337.306c13.824 9.779 29.798 30.874 35.43 47.002l51.098 161.024c5.632 16.077 2.202 40.602-7.578 54.579l-17.715 25.395c96.666 74.086 197.018 205.005 141.312 365.21zM768.87 460.134c-13.157-9.31-29.534-14.882-47.212-14.882-27.808 0-52.397 13.787-67.302 34.899l-0.173 0.259c-9.336 13.202-14.923 29.632-14.923 47.367 0 27.851 13.778 52.484 34.89 67.455l0.257 0.173c13.155 9.317 29.532 14.893 47.212 14.893 18.206 0 35.031-5.913 48.659-15.924l-0.229 0.16c-13.926-8.397-23.501-13.312-25.293-14.080-10.537-5.109-17.674-15.724-17.674-28.007 0-17.103 13.838-30.974 30.929-31.027h0.005c4.403 0 8.909 1.024 13.158 3.021 9.933 4.71 20.582 10.291 31.693 16.896 0.713-4.079 1.121-8.777 1.121-13.569 0-27.847-13.765-52.478-34.862-67.462l-0.256-0.172z" />
<glyph unicode="&#xe917;" glyph-name="tools" d="M160.512 607.232c47.77 37.12 87.398 11.52 140.288-49.715 5.939-6.912 13.926 1.178 18.483 5.12 4.506 3.994 74.291 66.816 77.722 69.683 3.379 3.021 7.475 8.653 2.099 14.95-10.034 12.231-22.502 28.079-34.714 44.131l-3.327 4.56c-92.57 121.088 253.235 203.213 200.141 204.493-27.034 0.717-135.475 1.997-151.706 0.205-65.69-6.912-148.173-68.301-189.696-96.922-54.323-37.171-74.598-58.982-77.926-62.003-15.36-13.414-2.458-44.39-30.31-68.813-29.44-25.754-47.821-6.246-64.87-21.197-8.448-7.475-32.102-25.19-38.861-31.078-6.81-5.99-8.038-16.077-1.075-24.115 0 0 64.717-71.475 70.144-77.824 5.376-6.246 20.019-11.674 29.030-3.635 9.062 7.987 32.358 28.314 36.25 31.898 3.994 3.379-2.56 44.083 18.33 60.262zM452.762 580.762c-6.144 7.117-13.773 7.322-20.326 1.485l-73.421-64.102c-2.986-2.717-4.853-6.62-4.853-10.958 0-3.637 1.312-6.968 3.489-9.544l-0.018 0.022 424.653-483.277c9.933-11.418 27.136-12.595 38.451-2.714l49.664 41.626c5.762 5.091 9.376 12.498 9.376 20.75 0 6.92-2.542 13.245-6.743 18.095l0.029-0.035-420.301 488.653zM1018.982 786.432c-3.789 25.293-16.896 20.019-23.706 9.318-6.81-10.803-36.915-56.422-49.306-77.107-12.288-20.48-42.598-60.979-99.021-20.992-58.778 41.523-38.349 70.502-28.109 90.010 10.291 19.61 41.882 74.598 46.438 81.408 4.557 6.912-0.768 26.982-18.995 18.586-18.278-8.397-129.178-52.48-144.538-115.712-15.718-64.307 13.158-121.805-43.52-178.893l-68.762-71.68 69.069-80.179 84.685 80.384c20.173 20.275 63.283 39.987 102.298 31.078 83.61-18.893 129.229 12.493 156.723 64.41 24.678 46.387 20.582 144.077 16.742 169.37zM140.237 86.886c-4.941-4.977-7.995-11.834-7.995-19.405s3.054-14.427 7.997-19.406l-0.002 0.002 48.691-47.616c10.65-10.701 27.546-6.195 38.195 4.506l251.238 246.989-76.954 87.757-261.171-252.826z" />
<glyph unicode="&#xe918;" glyph-name="map" horiz-adv-x="1178" d="M1161.5 956.875q16.1-11.5 16.1-30.475v-809.6q0-11.5-6.325-20.7t-16.675-13.225l-368-147.2q-13.8-6.325-27.6 0l-354.2 141.45-354.2-141.45q-5.75-2.875-13.8-2.875-10.925 0-20.7 6.325-16.1 11.5-16.1 30.475v809.6q0 11.5 6.325 20.7t16.675 13.225l368 147.2q13.8 6.325 27.6 0l354.2-141.45 354.2 141.45q18.4 7.475 34.5-3.45zM423.2 879.25v-730.25l331.2-132.25v730.25zM73.6 754.475v-730.25l312.8 124.775v730.25zM1104 141.525v730.25l-312.8-124.775v-730.25z" />
<glyph unicode="&#xe919;" glyph-name="plus-circle" d="M512 944c-274 0-496-222-496-496s222-496 496-496 496 222 496 496-222 496-496 496zM800 392c0-13.2-10.8-24-24-24h-184v-184c0-13.2-10.8-24-24-24h-112c-13.2 0-24 10.8-24 24v184h-184c-13.2 0-24 10.8-24 24v112c0 13.2 10.8 24 24 24h184v184c0 13.2 10.8 24 24 24h112c13.2 0 24-10.8 24-24v-184h184c13.2 0 24-10.8 24-24v-112z" />
<glyph unicode="&#xe91a;" glyph-name="arrow-up-circle" d="M512 21.333c-235.641 0-426.667 191.025-426.667 426.667v0c0 235.641 191.025 426.667 426.667 426.667v0c235.641 0 426.667-191.025 426.667-426.667v0c0-235.641-191.025-426.667-426.667-426.667v0zM512 661.333l-213.333-213.333h128v-170.667h170.667v170.667h128l-213.333 213.333z" />
<glyph unicode="&#xe91b;" glyph-name="clock" d="M512 106.667c188.513 0 341.333 152.82 341.333 341.333v0c0 188.513-152.82 341.333-341.333 341.333v0c-188.513 0-341.333-152.82-341.333-341.333v0c0-188.513 152.82-341.333 341.333-341.333v0zM512 874.667c235.641 0 426.667-191.025 426.667-426.667v0c0-235.641-191.025-426.667-426.667-426.667v0c-235.947 0-426.667 192-426.667 426.667 0 235.641 191.025 426.667 426.667 426.667v0zM533.333 661.333v-224l192-113.92-32-52.48-224 134.4v256h64z" />
<glyph unicode="&#xe91c;" glyph-name="contact-mail" d="M896 618.667v42.667l-128-85.333-128 85.333v-42.667l128-85.333zM938.667 832h-853.333c-47.128 0-85.333-38.205-85.333-85.333v0-597.333c0-47.128 38.205-85.333 85.333-85.333v0h853.333c47.128 0 85.333 38.205 85.333 85.333v0 597.333c0 47.128-38.205 85.333-85.333 85.333v0zM341.333 704c70.692 0 128-57.308 128-128v0c0-70.692-57.308-128-128-128v0c-70.692 0-128 57.308-128 128v0c0 70.692 57.308 128 128 128v0zM597.333 192h-512v42.667c0 85.333 170.667 132.267 256 132.267s256-46.933 256-132.267zM938.667 448h-341.333v256h341.333z" />
<glyph unicode="&#xe91d;" glyph-name="cursor-default-click" d="M459.093 589.227c-17.909 0-32.427-14.518-32.427-32.427v0-488.533c0-17.92 14.507-32.427 32.427-32.427 8.107 0 14.933 2.56 20.48 6.827l81.493 66.133 70.827-154.453c5.547-11.52 17.067-18.347 29.44-18.347 4.693 0 9.387 0 14.080 3.413l117.76 54.613c16.213 7.68 23.893 27.307 15.36 43.093l-71.253 154.88 102.827 19.2c7.314 1.942 13.548 5.825 18.32 11.063l0.027 0.030c11.52 13.653 9.813 33.707-5.12 46.080l-372.907 313.6-0.427-0.427c-5.59 4.775-12.902 7.68-20.892 7.68-0.005 0-0.010 0-0.016 0h0.001zM640 533.333v85.333h213.333v-85.333h-213.333zM590.080 756.907l120.747 120.747 60.16-60.16-120.747-120.747-60.16 60.16zM426.667 960h85.333v-213.333h-85.333v213.333zM167.68 334.507l120.747 120.747 60.16-60.16-120.747-120.747-60.16 60.16zM167.68 817.493l60.16 60.16 120.747-120.747-60.16-60.16-120.747 120.747zM298.667 533.333h-213.333v85.333h213.333v-85.333z" />
<glyph unicode="&#xe91e;" glyph-name="face-agent" d="M798.72 330.24c14.933 36.267 23.040 75.093 23.040 117.76 0 30.72-4.693 60.16-12.8 87.467-27.733-6.4-56.747-9.813-87.040-9.813-0.123 0-0.269 0-0.415 0-130.104 0-245.212 64.203-315.37 162.656l-0.802 1.185c-39.168-93.097-110.307-166.311-199.367-207.207l-2.446-1.007c-1.707-10.667-1.707-22.187-1.707-33.28 0-171.311 138.875-310.187 310.187-310.187v0c44.8 0 87.893 9.813 126.72 27.307 24.32-46.507 35.413-69.547 34.56-69.547-69.973-23.467-124.16-34.987-161.28-34.987-103.253 0-201.813 40.533-274.347 113.493-42.925 42.797-75.806 95.644-94.815 154.713l-0.758 2.727h-56.747v194.133h46.507c37.538 178.058 193.338 309.792 379.906 309.792 107.064 0 203.996-43.382 274.176-113.527l-0.002 0.002c52.191-51.991 89.488-118.897 104.958-193.784l0.429-2.482h47.36v-194.133h-2.56l-151.893-139.52-226.133 25.6v71.253h206.080l34.56 41.387zM395.52 457.813c12.8 0 25.173-5.12 34.133-14.507 8.688-8.757 14.057-20.818 14.057-34.133s-5.369-25.376-14.060-34.136l0.003 0.003c-8.96-8.96-21.333-14.080-34.133-14.080-26.88 0-48.64 21.333-48.64 48.213s21.76 48.64 48.64 48.64zM628.053 457.813c26.88 0 48.213-21.76 48.213-48.64s-21.333-48.213-48.213-48.213c-26.88 0-48.64 21.333-48.64 48.213 0 26.863 21.777 48.64 48.64 48.64v0z" />
<glyph unicode="&#xe91f;" glyph-name="image" d="M362.667 384l106.667-128 149.333 192 192-256h-597.333zM896 149.333v597.333c0 47.128-38.205 85.333-85.333 85.333v0h-597.333c-47.128 0-85.333-38.205-85.333-85.333v0-597.333c0-47.128 38.205-85.333 85.333-85.333v0h597.333c47.128 0 85.333 38.205 85.333 85.333v0z" />
<glyph unicode="&#xe920;" glyph-name="information" d="M554.667 576h-85.333v85.333h85.333zM554.667 234.667h-85.333v256h85.333zM512 874.667c-235.641 0-426.667-191.025-426.667-426.667v0c0-235.641 191.025-426.667 426.667-426.667v0c235.641 0 426.667 191.025 426.667 426.667v0c0 235.641-191.025 426.667-426.667 426.667v0z" />
<glyph unicode="&#xe921;" glyph-name="place" d="M512 469.333c-58.91 0-106.667 47.756-106.667 106.667v0c0 58.91 47.756 106.667 106.667 106.667v0c58.91 0 106.667-47.756 106.667-106.667v0c0-58.91-47.756-106.667-106.667-106.667v0zM512 874.667c-164.949 0-298.667-133.718-298.667-298.667v0c0-224 298.667-554.667 298.667-554.667s298.667 330.667 298.667 554.667c0 164.949-133.718 298.667-298.667 298.667v0z" />
<glyph unicode="&#xe922;" glyph-name="printer" d="M768 832h-512v-170.667h512zM810.667 448c-23.564 0-42.667 19.103-42.667 42.667v0c0 23.564 19.103 42.667 42.667 42.667v0c23.564 0 42.667-19.103 42.667-42.667v0c0-23.564-19.103-42.667-42.667-42.667v0zM682.667 149.333h-341.333v213.333h341.333zM810.667 618.667h-597.333c-70.692 0-128-57.308-128-128v0-256h170.667v-170.667h512v170.667h170.667v256c0 70.692-57.308 128-128 128v0z" />
<glyph unicode="&#xe923;" glyph-name="store" d="M512 192h-256v170.667h256zM896 362.667v85.333l-42.667 213.333h-682.667l-42.667-213.333v-85.333h42.667v-256h426.667v256h170.667v-256h85.333v256zM853.333 789.333h-682.667v-85.333h682.667v85.333z" />
<glyph unicode="&#xe924;" glyph-name="view-grid" d="M128 490.667h341.333v341.333h-341.333zM128 64h341.333v341.333h-341.333zM554.667 64h341.333v341.333h-341.333zM554.667 832v-341.333h341.333v341.333z" />
<glyph unicode="&#xe925;" glyph-name="view-list" d="M384 746.667v-170.667h512v170.667zM384 149.333h512v170.667h-512zM384 362.667h512v170.667h-512zM170.667 576h170.667v170.667h-170.667zM170.667 149.333h170.667v170.667h-170.667zM170.667 362.667h170.667v170.667h-170.667v-170.667z" />
<glyph unicode="&#xe926;" glyph-name="triangle-danger" d="M631.467 763.179l285.909-476.203c41.088-68.395 20.907-158.379-45.099-200.96-20.996-13.778-46.72-21.987-74.36-22.016h-571.869c-77.696 0-140.715 65.28-140.715 145.877 0 27.264 7.381 53.931 21.248 77.099l285.952 476.203c41.045 68.395 127.829 89.344 193.835 46.763 18.261-11.776 33.707-27.776 45.099-46.763zM536.747 727.381c-7.025 4.58-15.624 7.304-24.859 7.304-16.879 0-31.633-9.101-39.622-22.663l-0.117-0.215-285.909-476.288c-4.449-7.319-7.083-16.168-7.083-25.631 0-0.019 0-0.038 0-0.057v0.003c0-26.88 20.992-48.64 46.933-48.64h571.776c8.789 0 17.365 2.56 24.789 7.339 13.448 9.028 22.18 24.177 22.18 41.366 0 9.465-2.648 18.311-7.243 25.839l0.124-0.218-285.909 476.288c-3.827 6.328-8.867 11.545-14.837 15.462l-0.181 0.112zM512 234.667c-23.564 0-42.667 19.103-42.667 42.667s19.103 42.667 42.667 42.667v0c23.564 0 42.667-19.103 42.667-42.667s-19.103-42.667-42.667-42.667v0zM512 618.667c23.564 0 42.667-19.103 42.667-42.667v0-170.667c0-23.564-19.103-42.667-42.667-42.667s-42.667 19.103-42.667 42.667v0 170.667c0 23.564 19.103 42.667 42.667 42.667v0z" />
<glyph unicode="&#xe927;" glyph-name="gap" d="M477 954.8c-108.4-8.6-206.8-47.4-290.4-114.6-25.6-20.4-65.6-61.8-85.4-88.2-49-65.6-83-146.2-96.4-229-5.2-31.8-5.2-109 0-142 17.4-113.4 68-212.8 147.4-290.2 41.8-40.6 82.4-69.2 134.8-94.8 54-26.6 115.4-44 176-50.2 33.6-3.4 101-1.4 132.2 4 49.8 8.4 90.8 21.2 141 44.2 17.2 7.8 36 15.2 42 16.4 10.6 2.2 11.2 2 29.8-6.4 55-24.8 117.2-36.2 173.2-32 18.2 1.4 25.4 2.8 32.6 6.4 16.8 8.8 14.2 16.8-15.2 45.8-62.2 61-67.8 111.2-23.6 207.8 34.6 75.4 49 139.2 49 217 0 112.6-35.2 215-105.8 308-17.8 23.6-62.4 68.8-85.8 87-74.4 58.2-161.2 94.8-253.6 107-23.4 3.2-82.4 5.4-101.8 3.8zM573.4 881c47-6 77.4-14.8 118.2-34 8-3.8 15-7 15.6-7 1.6 0 37.8-20.4 50.8-28.6 41.4-26.2 96.4-80.8 123-122.4 20.4-31.4 48.6-89 52.4-107 0.6-2.8 1.8-5.8 2.6-7 2.8-3.4 9.6-32.8 13.4-57 4.8-31.2 4.8-107.4 0-139-5.4-35.6-18-74.8-37.2-115.6-14.2-30-19-43.4-27.4-76.6-7-27.2-7.6-32.2-7.6-56.8 0-23 0.8-30 5.4-48 3-11.6 6.6-23.6 7.8-26.6s1.8-6 1.2-6.6c-1.4-1.2-39 12-51.8 18.4-10.6 5.4-45.6 14.8-54.8 14.8-6.6 0-44.4-9.2-54-13-4.4-1.8-15.6-7-25-11.4-23.4-11-51.8-22.2-72-28.4-66.6-20.2-175-20-242 0.2-49.4 14.8-106.2 43.2-146.2 73-19.8 14.6-63.8 57.2-80.4 77.6-22.8 28.2-47 69.2-61.4 104.2-3.4 8.2-7 16.6-8 18.8-4.4 10.6-14.2 42.6-16.8 55.4-4.6 22.4-9.2 66.6-9.2 87.8 0 52 8.4 106.2 21.8 139.4 2 5.2 6.2 15.8 9.2 23.4 15.2 38.2 42.2 84.4 66 113 17.4 20.8 59 61 77 74.4 31.2 23.4 82.6 50.6 121 64.2 41 14.4 48.4 16.2 96 22 17.4 2.2 90.8 1.2 112.4-1.6zM548 666.2c-14.4-4.4-24.4-13.2-32-28.4-4.4-8.6-5.4-31.4-2-44 2.8-10 16-24.4 27-29.6 8.6-4 11.8-4.2 82.2-4.2 81.4 0 80.6-0.2 95.4 13.8 11.2 10.6 15.4 21.6 15.4 40-0.2 25.2-8 38.4-29 48.4l-12 5.8-70-0.2c-38.4 0-72.2-0.8-75-1.6zM317 497.8c-18-9-27.2-23.2-28.6-44.8-1.4-24.6 10.6-45.8 30.8-54.2 10-4.2 373.6-4.2 383.6 0 41.2 17.2 41.2 83 0 100.2-6.4 2.6-31 3-192.6 3-180.4-0.2-185.4-0.2-193.2-4.2zM324 336.2c-13.8-4.2-24.6-13.2-31-26.2-4.8-9.2-6.2-31.4-3-43 3.8-13.4 17.4-27.8 31.4-33 11-4 14.2-4.2 82.6-3.6l71.4 0.6 9.6 6c19.4 12 28.2 29.6 26.4 52.4-1.6 20.8-11.4 35.8-28.4 43.8-10 4.8-10.4 4.8-82 4.6-39.6 0-74.2-0.8-77-1.6z" />
<glyph unicode="&#xe93f;" glyph-name="link-external" horiz-adv-x="768" d="M704 320h64v-192c0-35.2-28.8-64-64-64h-640c-35.2 0-64 28.8-64 64v640c0 35.2 28.8 64 64 64h192v-64h-192v-640h640v192zM384 832l144-144-208-208 96-96 208 208 144-144v384h-384z" />
<glyph unicode="&#xe940;" glyph-name="customer" d="M912.736 197.984c-16.576 16.32-217.44 94.016-253.888 108.672-36.256 14.4-50.72 54.304-50.72 54.304s-16.32-9.024-16.32 16.32c0 25.376 16.32-16.32 32.64 81.536 0 0 45.28 12.704 36.288 117.76h-10.88s27.2 112.32 0 150.336c-27.296 38.016-37.984 63.36-97.92 81.536-59.84 18.144-38.080 14.528-81.536 12.672-43.52-1.824-79.744-25.376-79.744-38.016 0 0-27.2-1.824-38.016-12.704-10.88-10.88-28.992-61.568-28.992-74.24s9.056-97.92 18.112-115.968l-10.784-3.52c-9.056-105.088 36.224-117.824 36.224-117.824 16.32-97.856 32.64-56.16 32.64-81.536 0-25.344-16.32-16.32-16.32-16.32s-14.496-39.872-50.72-54.304c-36.224-14.496-237.312-92.384-253.664-108.672-16.32-16.64-14.496-92.672-14.496-92.672h385.152l28.096 110.72-24.96 24.96 42.976 43.040 42.976-43.008-24.96-24.96 28.096-110.72h385.152s2.016 76.096-14.496 92.704z" />
<glyph unicode="&#xe941;" glyph-name="chat" horiz-adv-x="1208" d="M1208.32 483.87q0-129.133-80.965-239.307t-220.347-173.715-303.361-63.542q-125.034 0-239.819 39.97l2.050-3.075-365.878-109.661q45.094 60.467 72.253 129.646t32.283 108.124l4.099 38.945q-108.636 122.984-108.636 272.615 0 129.133 80.965 238.794t219.834 173.203 302.849 63.542 303.361-63.542 220.347-173.203 80.965-238.794zM952.103 483.87q0 29.721-21.522 51.243t-52.268 21.522q-29.721 0-51.243-21.522t-21.522-51.243q0-30.746 21.522-52.268t51.243-21.522q30.746 0 52.268 21.522t21.522 52.268zM695.886 483.87q0 29.721-21.522 51.243t-52.268 21.522q-29.721 0-51.243-21.522t-21.522-51.243q0-30.746 21.522-52.268t51.243-21.522q30.746 0 52.268 21.522t21.522 52.268zM439.669 483.87q0 29.721-21.522 51.243t-52.268 21.522q-29.721 0-51.243-21.522t-21.522-51.243q0-30.746 21.522-52.268t51.243-21.522q30.746 0 52.268 21.522t21.522 52.268z" />
</font>
</defs>
</svg>
